# xmcd
#
# Track frame offsets: 
#        150
#        14055
#        24091
#        37507
#        48174
#        61565
#        77075
#        92103
#        108003
#        116568
#        128711
#        140235
#
# Disc length: 2012 seconds
#
# Revision: 0
# Processed by: cddbd v1.5.2PL0 Copyright (c) Steve Scherf et al.
# Submitted via: ExactAudioCopyFreeDBPlugin 1.0
#
DISCID=8907da0c
DTITLE=Various Artist - Holiday Collection
DYEAR=1997
DGENRE=Country
TTITLE0=Jeff Carson - Christmas Memory
TTITLE1=Steven Paul McCollum - The Funny Little Man All Dressed In Red
TTITLE2=Orion - Merry Christmas Love
TTITLE3=Billy Davis Trio - Winter Wonderland
TTITLE4=Dan Mitchell - A Christmas Filled With Love
TTITLE5=Roy Waddell - An Old Fashioned Christmas
TTITLE6=B.J. Thomas - Christmas Song
TTITLE7=Steven Paul McCollum - Christmas Eve
TTITLE8=Orion - Santa Bring My Baby Back To Me
TTITLE9=Roy Waddell - Silver Bells
TTITLE10=B.J. Thomas - It Came Upon A Midnight Clear
TTITLE11=Billy Davis Trio - White Christmas
EXTD=
EXTT0=
EXTT1=
EXTT2=
EXTT3=
EXTT4=
EXTT5=
EXTT6=
EXTT7=
EXTT8=
EXTT9=
EXTT10=
EXTT11=
PLAYORDER=
